<svg xmlns="http://www.w3.org/2000/svg" viewBox="0 0 1280 940" width="1280" height="940">
<style>
text { font-family: 'Helvetica Neue', Helvetica, Arial, 'PingFang SC', 'Microsoft YaHei', sans-serif; fill: #111827; }
.title { font-size: 24px; font-weight: 700; }
.label { font-size: 14px; font-weight: 650; }
.small { font-size: 11px; fill: #6b7280; }
.tiny { font-size: 10px; fill: #6b7280; }
.entity-header { font-size: 14px; font-weight: 700; }
.field { font-size: 11px; fill: #374151; }
</style>
<defs>
<marker id="arrow-blue" markerWidth="10" markerHeight="7" refX="9" refY="3.5" orient="auto">
<polygon points="0 0, 10 3.5, 0 7" fill="#2563eb"/>
</marker>
<marker id="arrow-red" markerWidth="10" markerHeight="7" refX="9" refY="3.5" orient="auto">
<polygon points="0 0, 10 3.5, 0 7" fill="#dc2626"/>
</marker>
<marker id="arrow-green" markerWidth="10" markerHeight="7" refX="9" refY="3.5" orient="auto">
<polygon points="0 0, 10 3.5, 0 7" fill="#16a34a"/>
</marker>
<marker id="arrow-purple" markerWidth="10" markerHeight="7" refX="9" refY="3.5" orient="auto">
<polygon points="0 0, 10 3.5, 0 7" fill="#9333ea"/>
</marker>
<marker id="arrow-orange" markerWidth="10" markerHeight="7" refX="9" refY="3.5" orient="auto">
<polygon points="0 0, 10 3.5, 0 7" fill="#ea580c"/>
</marker>
<marker id="arrow-gray" markerWidth="10" markerHeight="7" refX="9" refY="3.5" orient="auto">
<polygon points="0 0, 10 3.5, 0 7" fill="#6b7280"/>
</marker>
<filter id="softShadow" x="-10%" y="-10%" width="120%" height="130%">
<feDropShadow dx="0" dy="3" stdDeviation="5" flood-color="#111827" flood-opacity="0.08"/>
</filter>
</defs>
<rect width="1280" height="940" fill="#ffffff"/>
<text x="40" y="42" class="title">Backend Class Diagram</text>
<rect x="40" y="78" width="1200" height="170" rx="12" fill="#2563eb" fill-opacity="0.035" stroke="#2563eb" stroke-width="1.2" stroke-dasharray="7,5"/>
<text x="54" y="99" fill="#2563eb" font-size="11" font-weight="700">Controller Layer</text>
<rect x="40" y="278" width="1200" height="300" rx="12" fill="#16a34a" fill-opacity="0.035" stroke="#16a34a" stroke-width="1.2" stroke-dasharray="7,5"/>
<text x="54" y="299" fill="#16a34a" font-size="11" font-weight="700">Service Layer</text>
<rect x="40" y="608" width="1200" height="220" rx="12" fill="#9333ea" fill-opacity="0.035" stroke="#9333ea" stroke-width="1.2" stroke-dasharray="7,5"/>
<text x="54" y="629" fill="#9333ea" font-size="11" font-weight="700">Repository &amp; Entity Layer</text>
<rect x="70" y="116" width="190" height="104" rx="8" fill="#eff6ff" stroke="#bfdbfe" stroke-width="1.5" filter="url(#softShadow)"/>
<line x1="70" y1="150" x2="260" y2="150" stroke="#bfdbfe"/>
<line x1="70" y1="178" x2="260" y2="178" stroke="#bfdbfe"/>
<text x="165.0" y="138" text-anchor="middle" class="label">UserController</text>
<text x="80" y="168" class="small">- service refs</text>
<text x="80" y="196" class="small">+ createUser()</text>
<text x="80" y="212" class="small">+ listMySubmissions()</text>
<rect x="306" y="116" width="190" height="104" rx="8" fill="#eff6ff" stroke="#bfdbfe" stroke-width="1.5" filter="url(#softShadow)"/>
<line x1="306" y1="150" x2="496" y2="150" stroke="#bfdbfe"/>
<line x1="306" y1="178" x2="496" y2="178" stroke="#bfdbfe"/>
<text x="401.0" y="138" text-anchor="middle" class="label">UploadController</text>
<text x="316" y="168" class="small">- service refs</text>
<text x="316" y="196" class="small">+ uploadCode()</text>
<text x="316" y="212" class="small">- resolveClientIp()</text>
<rect x="542" y="116" width="190" height="104" rx="8" fill="#eff6ff" stroke="#bfdbfe" stroke-width="1.5" filter="url(#softShadow)"/>
<line x1="542" y1="150" x2="732" y2="150" stroke="#bfdbfe"/>
<line x1="542" y1="178" x2="732" y2="178" stroke="#bfdbfe"/>
<text x="637.0" y="138" text-anchor="middle" class="label">RankController</text>
<text x="552" y="168" class="small">- service refs</text>
<text x="552" y="196" class="small">+ listRankPage()</text>
<text x="552" y="212" class="small">+ getMyRank()</text>
<rect x="778" y="116" width="190" height="104" rx="8" fill="#eff6ff" stroke="#bfdbfe" stroke-width="1.5" filter="url(#softShadow)"/>
<line x1="778" y1="150" x2="968" y2="150" stroke="#bfdbfe"/>
<line x1="778" y1="178" x2="968" y2="178" stroke="#bfdbfe"/>
<text x="873.0" y="138" text-anchor="middle" class="label">ContestController</text>
<text x="788" y="168" class="small">- service refs</text>
<text x="788" y="196" class="small">+ getContestConfig()</text>
<text x="788" y="212" class="small"></text>
<rect x="1014" y="116" width="190" height="104" rx="8" fill="#eff6ff" stroke="#bfdbfe" stroke-width="1.5" filter="url(#softShadow)"/>
<line x1="1014" y1="150" x2="1204" y2="150" stroke="#bfdbfe"/>
<line x1="1014" y1="178" x2="1204" y2="178" stroke="#bfdbfe"/>
<text x="1109.0" y="138" text-anchor="middle" class="label">LogDownloadController</text>
<text x="1024" y="168" class="small">- service refs</text>
<text x="1024" y="196" class="small">+ downloadLog()</text>
<text x="1024" y="212" class="small">- secretMatches()</text>
<rect x="65" y="315" width="210" height="134" rx="8" fill="#f0fdf4" stroke="#bbf7d0" stroke-width="1.5" filter="url(#softShadow)"/>
<line x1="65" y1="349" x2="275" y2="349" stroke="#bbf7d0"/>
<line x1="65" y1="391" x2="275" y2="391" stroke="#bbf7d0"/>
<text x="170.0" y="337" text-anchor="middle" class="label">UserService</text>
<text x="75" y="367" class="small">- userRepository</text>
<text x="75" y="383" class="small">- submissionRepository</text>
<text x="75" y="409" class="small">+ listSubmissions()</text>
<text x="75" y="425" class="small">+ cancelSubmission()</text>
<text x="75" y="441" class="small">+ createUserEntity()</text>
<rect x="310" y="315" width="210" height="134" rx="8" fill="#f0fdf4" stroke="#bbf7d0" stroke-width="1.5" filter="url(#softShadow)"/>
<line x1="310" y1="349" x2="520" y2="349" stroke="#bbf7d0"/>
<line x1="310" y1="391" x2="520" y2="391" stroke="#bbf7d0"/>
<text x="415.0" y="337" text-anchor="middle" class="label">UserSessionService</text>
<text x="320" y="367" class="small">- secret</text>
<text x="320" y="383" class="small">- sessionTtl</text>
<text x="320" y="409" class="small">+ requireSessionUser()</text>
<text x="320" y="425" class="small">+ writeSessionCookie()</text>
<text x="320" y="441" class="small">+ verifyCurrentUserId()</text>
<rect x="555" y="315" width="210" height="134" rx="8" fill="#f0fdf4" stroke="#bbf7d0" stroke-width="1.5" filter="url(#softShadow)"/>
<line x1="555" y1="349" x2="765" y2="349" stroke="#bbf7d0"/>
<line x1="555" y1="391" x2="765" y2="391" stroke="#bbf7d0"/>
<text x="660.0" y="337" text-anchor="middle" class="label">UploadService</text>
<text x="565" y="367" class="small">- clock</text>
<text x="565" y="383" class="small">- cooldown statuses</text>
<text x="565" y="409" class="small">+ uploadCode()</text>
<text x="565" y="425" class="small">- validateUserCanUpload()</text>
<text x="565" y="441" class="small">- markUploaded()</text>
<rect x="800" y="315" width="210" height="134" rx="8" fill="#f0fdf4" stroke="#bbf7d0" stroke-width="1.5" filter="url(#softShadow)"/>
<line x1="800" y1="349" x2="1010" y2="349" stroke="#bbf7d0"/>
<line x1="800" y1="391" x2="1010" y2="391" stroke="#bbf7d0"/>
<text x="905.0" y="337" text-anchor="middle" class="label">PackageService</text>
<text x="810" y="367" class="small">- uploadDir</text>
<text x="810" y="383" class="small">- targetDirs</text>
<text x="810" y="409" class="small">+ validateUploadFile()</text>
<text x="810" y="425" class="small">+ saveAndValidate()</text>
<text x="810" y="441" class="small">+ distribute()</text>
<rect x="1045" y="315" width="210" height="120" rx="8" fill="#f0fdf4" stroke="#bbf7d0" stroke-width="1.5" filter="url(#softShadow)"/>
<line x1="1045" y1="349" x2="1255" y2="349" stroke="#bbf7d0"/>
<line x1="1045" y1="377" x2="1255" y2="377" stroke="#bbf7d0"/>
<text x="1150.0" y="337" text-anchor="middle" class="label">RankService</text>
<text x="1055" y="367" class="small">- submissionRepository</text>
<text x="1055" y="395" class="small">+ listRankPage()</text>
<text x="1055" y="411" class="small">+ getUserRank()</text>
<text x="1055" y="427" class="small">- buildRankRows()</text>
<rect x="190" y="455" width="210" height="118" rx="8" fill="#f0fdf4" stroke="#bbf7d0" stroke-width="1.5" filter="url(#softShadow)"/>
<line x1="190" y1="489" x2="400" y2="489" stroke="#bbf7d0"/>
<line x1="190" y1="531" x2="400" y2="531" stroke="#bbf7d0"/>
<text x="295.0" y="477" text-anchor="middle" class="label">ContestConfigService</text>
<text x="200" y="507" class="small">- currentContest</text>
<text x="200" y="523" class="small">- startsAt / endsAt</text>
<text x="200" y="549" class="small">+ currentContest()</text>
<text x="200" y="565" class="small">+ validateWindow()</text>
<rect x="495" y="455" width="210" height="90" rx="8" fill="#f0fdf4" stroke="#bbf7d0" stroke-width="1.5" filter="url(#softShadow)"/>
<line x1="495" y1="489" x2="705" y2="489" stroke="#bbf7d0"/>
<line x1="495" y1="517" x2="705" y2="517" stroke="#bbf7d0"/>
<text x="600.0" y="477" text-anchor="middle" class="label">AppSettingService</text>
<text x="505" y="507" class="small">- repository</text>
<text x="505" y="535" class="small">+ uploadInterval()</text>
<rect x="800" y="455" width="210" height="90" rx="8" fill="#f0fdf4" stroke="#bbf7d0" stroke-width="1.5" filter="url(#softShadow)"/>
<line x1="800" y1="489" x2="1010" y2="489" stroke="#bbf7d0"/>
<line x1="800" y1="517" x2="1010" y2="517" stroke="#bbf7d0"/>
<text x="905.0" y="477" text-anchor="middle" class="label">LogDownloadService</text>
<text x="810" y="507" class="small">- directoryTemplates</text>
<text x="810" y="535" class="small">+ loadLogFile()</text>
<rect x="70" y="650" width="190" height="90" rx="8" fill="#faf5ff" stroke="#e9d5ff" stroke-width="1.5" filter="url(#softShadow)"/>
<line x1="70" y1="684" x2="260" y2="684" stroke="#e9d5ff"/>
<line x1="70" y1="712" x2="260" y2="712" stroke="#e9d5ff"/>
<text x="165.0" y="672" text-anchor="middle" class="label">UserRepository</text>
<text x="80" y="702" class="small">&lt;&lt;JpaRepository&gt;&gt;</text>
<text x="80" y="730" class="small">+ query methods</text>
<rect x="70" y="765" width="190" height="90" rx="8" fill="#f9fafb" stroke="#d1d5db" stroke-width="1.5" filter="url(#softShadow)"/>
<line x1="70" y1="799" x2="260" y2="799" stroke="#d1d5db"/>
<line x1="70" y1="827" x2="260" y2="827" stroke="#d1d5db"/>
<text x="165.0" y="787" text-anchor="middle" class="label">UserEntity</text>
<text x="80" y="817" class="small">@Entity</text>
<text x="80" y="845" class="small">getters/setters</text>
<path d="M 165 737 L 165 765" fill="none" stroke="#6b7280" stroke-width="1.8" marker-end="url(#arrow-gray)" stroke-dasharray="5,4"/>
<rect x="111.0" y="731.0" width="108" height="18" rx="9" fill="#ffffff" opacity="0.94"/>
<text x="165.0" y="744.0" text-anchor="middle" class="tiny">maps</text>
<rect x="305" y="650" width="190" height="90" rx="8" fill="#faf5ff" stroke="#e9d5ff" stroke-width="1.5" filter="url(#softShadow)"/>
<line x1="305" y1="684" x2="495" y2="684" stroke="#e9d5ff"/>
<line x1="305" y1="712" x2="495" y2="712" stroke="#e9d5ff"/>
<text x="400.0" y="672" text-anchor="middle" class="label">SubmissionRepository</text>
<text x="315" y="702" class="small">&lt;&lt;JpaRepository&gt;&gt;</text>
<text x="315" y="730" class="small">+ query methods</text>
<rect x="305" y="765" width="190" height="90" rx="8" fill="#f9fafb" stroke="#d1d5db" stroke-width="1.5" filter="url(#softShadow)"/>
<line x1="305" y1="799" x2="495" y2="799" stroke="#d1d5db"/>
<line x1="305" y1="827" x2="495" y2="827" stroke="#d1d5db"/>
<text x="400.0" y="787" text-anchor="middle" class="label">SubmissionEntity</text>
<text x="315" y="817" class="small">@Entity</text>
<text x="315" y="845" class="small">getters/setters</text>
<path d="M 400 737 L 400 765" fill="none" stroke="#6b7280" stroke-width="1.8" marker-end="url(#arrow-gray)" stroke-dasharray="5,4"/>
<rect x="346.0" y="731.0" width="108" height="18" rx="9" fill="#ffffff" opacity="0.94"/>
<text x="400.0" y="744.0" text-anchor="middle" class="tiny">maps</text>
<rect x="540" y="650" width="190" height="90" rx="8" fill="#faf5ff" stroke="#e9d5ff" stroke-width="1.5" filter="url(#softShadow)"/>
<line x1="540" y1="684" x2="730" y2="684" stroke="#e9d5ff"/>
<line x1="540" y1="712" x2="730" y2="712" stroke="#e9d5ff"/>
<text x="635.0" y="672" text-anchor="middle" class="label">QuestionRepo</text>
<text x="550" y="702" class="small">&lt;&lt;JpaRepository&gt;&gt;</text>
<text x="550" y="730" class="small">+ query methods</text>
<rect x="540" y="765" width="190" height="90" rx="8" fill="#f9fafb" stroke="#d1d5db" stroke-width="1.5" filter="url(#softShadow)"/>
<line x1="540" y1="799" x2="730" y2="799" stroke="#d1d5db"/>
<line x1="540" y1="827" x2="730" y2="827" stroke="#d1d5db"/>
<text x="635.0" y="787" text-anchor="middle" class="label">QuestionDetailEntity</text>
<text x="550" y="817" class="small">@Entity</text>
<text x="550" y="845" class="small">getters/setters</text>
<path d="M 635 737 L 635 765" fill="none" stroke="#6b7280" stroke-width="1.8" marker-end="url(#arrow-gray)" stroke-dasharray="5,4"/>
<rect x="581.0" y="731.0" width="108" height="18" rx="9" fill="#ffffff" opacity="0.94"/>
<text x="635.0" y="744.0" text-anchor="middle" class="tiny">maps</text>
<rect x="775" y="650" width="190" height="90" rx="8" fill="#faf5ff" stroke="#e9d5ff" stroke-width="1.5" filter="url(#softShadow)"/>
<line x1="775" y1="684" x2="965" y2="684" stroke="#e9d5ff"/>
<line x1="775" y1="712" x2="965" y2="712" stroke="#e9d5ff"/>
<text x="870.0" y="672" text-anchor="middle" class="label">TestAccountRepo</text>
<text x="785" y="702" class="small">&lt;&lt;JpaRepository&gt;&gt;</text>
<text x="785" y="730" class="small">+ query methods</text>
<rect x="775" y="765" width="190" height="90" rx="8" fill="#f9fafb" stroke="#d1d5db" stroke-width="1.5" filter="url(#softShadow)"/>
<line x1="775" y1="799" x2="965" y2="799" stroke="#d1d5db"/>
<line x1="775" y1="827" x2="965" y2="827" stroke="#d1d5db"/>
<text x="870.0" y="787" text-anchor="middle" class="label">TestAccountEntity</text>
<text x="785" y="817" class="small">@Entity</text>
<text x="785" y="845" class="small">getters/setters</text>
<path d="M 870 737 L 870 765" fill="none" stroke="#6b7280" stroke-width="1.8" marker-end="url(#arrow-gray)" stroke-dasharray="5,4"/>
<rect x="816.0" y="731.0" width="108" height="18" rx="9" fill="#ffffff" opacity="0.94"/>
<text x="870.0" y="744.0" text-anchor="middle" class="tiny">maps</text>
<rect x="1010" y="650" width="190" height="90" rx="8" fill="#faf5ff" stroke="#e9d5ff" stroke-width="1.5" filter="url(#softShadow)"/>
<line x1="1010" y1="684" x2="1200" y2="684" stroke="#e9d5ff"/>
<line x1="1010" y1="712" x2="1200" y2="712" stroke="#e9d5ff"/>
<text x="1105.0" y="672" text-anchor="middle" class="label">AppSettingRepo</text>
<text x="1020" y="702" class="small">&lt;&lt;JpaRepository&gt;&gt;</text>
<text x="1020" y="730" class="small">+ query methods</text>
<rect x="1010" y="765" width="190" height="90" rx="8" fill="#f9fafb" stroke="#d1d5db" stroke-width="1.5" filter="url(#softShadow)"/>
<line x1="1010" y1="799" x2="1200" y2="799" stroke="#d1d5db"/>
<line x1="1010" y1="827" x2="1200" y2="827" stroke="#d1d5db"/>
<text x="1105.0" y="787" text-anchor="middle" class="label">AppSettingEntity</text>
<text x="1020" y="817" class="small">@Entity</text>
<text x="1020" y="845" class="small">getters/setters</text>
<path d="M 1105 737 L 1105 765" fill="none" stroke="#6b7280" stroke-width="1.8" marker-end="url(#arrow-gray)" stroke-dasharray="5,4"/>
<rect x="1051.0" y="731.0" width="108" height="18" rx="9" fill="#ffffff" opacity="0.94"/>
<text x="1105.0" y="744.0" text-anchor="middle" class="tiny">maps</text>
<path d="M 165 248 L 165 270 L 170 270 L 170 315" fill="none" stroke="#2563eb" stroke-width="1.8" marker-end="url(#arrow-blue)" stroke-dasharray="5,4"/>
<path d="M 405 248 L 405 270 L 415 270 L 415 315" fill="none" stroke="#2563eb" stroke-width="1.8" marker-end="url(#arrow-blue)" stroke-dasharray="5,4"/>
<path d="M 640 248 L 640 270 L 1150 270 L 1150 315" fill="none" stroke="#2563eb" stroke-width="1.8" marker-end="url(#arrow-blue)" stroke-dasharray="5,4"/>
<path d="M 875 248 L 875 270 L 295 270 L 295 455" fill="none" stroke="#2563eb" stroke-width="1.8" marker-end="url(#arrow-blue)" stroke-dasharray="5,4"/>
<path d="M 1110 248 L 1110 270 L 905 270 L 905 455" fill="none" stroke="#2563eb" stroke-width="1.8" marker-end="url(#arrow-blue)" stroke-dasharray="5,4"/>
<path d="M 170 430 L 170 600 L 165 600 L 165 650" fill="none" stroke="#16a34a" stroke-width="1.8" marker-end="url(#arrow-green)" stroke-dasharray="5,4"/>
<path d="M 660 430 L 660 600 L 400 600 L 400 650" fill="none" stroke="#16a34a" stroke-width="1.8" marker-end="url(#arrow-green)" stroke-dasharray="5,4"/>
<path d="M 1150 430 L 1150 600 L 400 600 L 400 650" fill="none" stroke="#16a34a" stroke-width="1.8" marker-end="url(#arrow-green)" stroke-dasharray="5,4"/>
<path d="M 600 548 L 600 600 L 870 600 L 870 650" fill="none" stroke="#16a34a" stroke-width="1.8" marker-end="url(#arrow-green)" stroke-dasharray="5,4"/>
<path d="M 170 430 L 170 600 L 635 600 L 635 650" fill="none" stroke="#16a34a" stroke-width="1.8" marker-end="url(#arrow-green)" stroke-dasharray="5,4"/>
<path d="M 905 548 L 905 600 L 400 600 L 400 650" fill="none" stroke="#16a34a" stroke-width="1.8" marker-end="url(#arrow-green)" stroke-dasharray="5,4"/>
<g transform="translate(60,848)">
<line x1="0" y1="8" x2="30" y2="8" stroke="#2563eb" stroke-width="1.7" marker-end="url(#arrow-blue)" stroke-dasharray="5,4"/>
<text x="38" y="12" class="small">controller uses service</text>
<line x1="0" y1="28" x2="30" y2="28" stroke="#16a34a" stroke-width="1.7" marker-end="url(#arrow-green)" stroke-dasharray="5,4"/>
<text x="38" y="32" class="small">service/repository data</text>
<line x1="0" y1="48" x2="30" y2="48" stroke="#9333ea" stroke-width="1.7" marker-end="url(#arrow-purple)"/>
<text x="38" y="52" class="small">package/file collaboration</text>
</g>
</svg>